<svg width="1671" height="1280" xmlns="http://www.w3.org/2000/svg" xmlns:xlink="http://www.w3.org/1999/xlink" xml:space="preserve" overflow="hidden"><g transform="translate(-1200 -1450)"><path d="M2096.59 1462.42C2098.96 1463.85 2101.33 1465.27 2103.78 1466.74 2107.7 1468.99 2107.7 1468.99 2111.71 1471.28 2119.77 1476.25 2127.22 1481.59 2134.72 1487.37 2136.97 1489.06 2139.23 1490.76 2141.55 1492.51 2168.04 1515.49 2181.38 1549.33 2196.6 1580.18 2198.8 1584.55 2201 1588.91 2203.21 1593.27 2208.8 1604.34 2214.33 1615.45 2219.83 1626.56 2229.12 1645.27 2238.42 1663.97 2247.75 1682.66 2248.79 1684.75 2249.83 1686.84 2250.91 1689 2265.07 1717.37 2279.45 1745.62 2294.43 1773.57 2306.52 1796.2 2317.91 1819.17 2329.34 1842.13 2345.42 1874.41 2361.53 1906.66 2377.64 1938.92 2383.78 1951.22 2389.92 1963.53 2396.06 1975.84 2430.17 2044.36 2430.17 2044.36 2465.5 2112.26 2485.56 2150.1 2504.57 2188.48 2523.72 2226.78 2529.47 2238.28 2535.24 2249.77 2541.01 2261.26 2545.5 2270.18 2549.96 2279.11 2554.43 2288.04 2556.55 2292.28 2558.68 2296.53 2560.82 2300.77 2563.77 2306.63 2566.7 2312.5 2569.63 2318.38 2571.29 2321.71 2572.96 2325.04 2574.68 2328.47 2578.23 2336.42 2578.23 2336.42 2578.23 2343.3 2573.72 2343.35 2569.21 2343.4 2564.56 2343.45 2494.1 2344.96 2419.62 2351.64 2353.78 2378.29 2342.74 2381.62 2338.06 2381.61 2327.25 2377.67 2321.11 2368.85 2321.11 2368.85 2315.5 2357.07 2314.47 2354.97 2313.45 2352.86 2312.39 2350.69 2309.05 2343.81 2305.8 2336.9 2302.54 2329.98 2300.23 2325.19 2297.91 2320.4 2295.58 2315.61 2292.11 2308.47 2288.64 2301.32 2285.19 2294.16 2276.76 2276.66 2267.92 2259.42 2258.7 2242.32 2240.81 2208.82 2223.97 2174.79 2207.12 2140.76 2194.91 2116.15 2182.4 2091.72 2169.53 2067.44 2150.11 2030.78 2131.66 1993.67 2113.23 1956.51 2094.65 1919.08 2075.68 1881.91 2056.09 1845 2038.45 1811.61 2038.45 1811.61 2038.45 1803.61 2036.18 1803.61 2033.91 1803.61 2031.58 1803.61 2030.74 1806.42 2029.91 1809.23 2029.05 1812.12 2023.88 1826.53 2017.23 1839.66 2010.17 1853.22 2008.72 1856.02 2007.28 1858.82 2005.79 1861.71 2002.69 1867.72 1999.58 1873.74 1996.47 1879.75 1988.23 1895.64 1980.04 1911.56 1971.85 1927.47 1970.2 1930.67 1968.56 1933.87 1966.86 1937.17 1951.88 1966.29 1937.21 1995.57 1922.63 2024.9 1907.81 2054.69 1892.81 2084.35 1877.12 2113.69 1860.99 2144.1 1845.8 2174.99 1830.45 2205.8 1808.61 2249.62 1786.64 2293.32 1763.4 2336.42 1760.94 2341.01 1758.48 2345.61 1756.02 2350.2 1750.48 2360.52 1744.92 2370.82 1739.34 2381.11 1714.79 2376.76 1691.12 2370.59 1667.27 2363.42 1626.98 2351.71 1585.71 2348.78 1544.01 2346.31 1539.25 2346.01 1534.48 2345.71 1529.71 2345.41 1518.22 2344.69 1506.73 2343.98 1495.23 2343.3 1497.98 2327.68 1503.65 2314.96 1510.92 2300.97 1513.15 2296.62 1515.37 2292.26 1517.59 2287.91 1518.83 2285.49 1520.07 2283.07 1521.35 2280.58 1527.01 2269.47 1532.59 2258.33 1538.16 2247.17 1539.95 2243.6 1539.95 2243.6 1541.77 2239.96 1553.1 2217.27 1564.43 2194.58 1575.76 2171.89 1589.62 2144.12 1603.49 2116.35 1617.36 2088.59 1626.63 2070.04 1635.89 2051.5 1645.15 2032.95 1654.2 2014.81 1663.26 1996.67 1672.33 1978.53 1675.74 1971.71 1679.15 1964.88 1682.55 1958.05 1700.46 1922.15 1718.61 1886.42 1737.4 1850.97 1749.95 1827.24 1762 1803.29 1773.91 1779.24 1779.26 1768.42 1784.66 1757.63 1790.05 1746.84 1792.21 1742.52 1794.36 1738.2 1796.52 1733.87 1804.8 1717.27 1813.09 1700.67 1821.38 1684.07 1827.63 1671.55 1833.88 1659.03 1840.13 1646.5 1846.26 1634.2 1852.4 1621.9 1858.54 1609.6 1860.85 1604.98 1863.16 1600.36 1865.46 1595.74 1896.74 1532.94 1921.59 1484.2 1989.35 1455.97 2021.84 1447.39 2066.28 1447.19 2096.59 1462.42Z" fill="#3B75EF" fill-rule="evenodd"/><path d="M1953.37 2563.17C1980.49 2587.69 2006.12 2613.79 2031.78 2639.81 2043.65 2634.74 2050.98 2628.11 2059.85 2618.79 2062.6 2615.93 2065.36 2613.08 2068.2 2610.14 2071.14 2607.09 2074.07 2604.05 2077.1 2600.91 2106.96 2570.49 2137.71 2543.78 2172.67 2519.45 2174.62 2518.07 2176.57 2516.68 2178.58 2515.26 2263.81 2455.43 2359.29 2420.54 2461.31 2402.52 2463.86 2402.07 2466.41 2401.62 2469.04 2401.15 2541.53 2389.13 2619.86 2390.82 2691.53 2405.96 2699.47 2407.16 2707.42 2408.31 2715.37 2409.4 2729.19 2411.58 2742.95 2413.89 2756.61 2416.92 2759.47 2417.54 2762.34 2418.15 2765.29 2418.79 2787.67 2430 2800.18 2455.15 2812.45 2476.03 2822.43 2492.78 2832.49 2509.42 2843.26 2525.68 2845.01 2528.32 2846.75 2530.95 2848.55 2533.67 2851.91 2538.71 2855.29 2543.73 2858.7 2548.74 2860.21 2551.01 2861.72 2553.29 2863.28 2555.64 2864.62 2557.62 2865.96 2559.6 2867.35 2561.65 2870.22 2567.59 2870.22 2567.59 2870.22 2581.35 2843.92 2579.34 2818.5 2574.87 2792.69 2569.53 2789 2568.78 2785.32 2568.03 2781.53 2567.26 2765.5 2564 2749.51 2560.64 2733.57 2556.97 2621.56 2531.98 2489.73 2541.26 2379.43 2569.15 2371.7 2571.1 2363.95 2572.93 2356.19 2574.77 2250.57 2600.39 2146.9 2648.98 2060.64 2715.35 2050.1 2723.32 2041.79 2729.22 2028.35 2729.22 2020.06 2724.24 2020.06 2724.24 2010.95 2716.54 1966.43 2680.79 1914.93 2653.68 1863.41 2629.49 1859.87 2627.79 1859.87 2627.79 1856.25 2626.06 1703.43 2552.98 1522.29 2528.65 1354.85 2553.84 1351.57 2554.32 1348.3 2554.8 1344.93 2555.29 1305.47 2561.18 1266.67 2568.16 1228.2 2578.82 1218.38 2581.12 1210.24 2581.88 1200.22 2581.35 1202.17 2568.75 1205.43 2559.86 1212.19 2549.09 1214.85 2544.81 1214.85 2544.81 1217.57 2540.45 1219.5 2537.42 1221.43 2534.39 1223.41 2531.27 1225.41 2528.12 1227.41 2524.98 1229.46 2521.74 1233.66 2515.14 1237.86 2508.55 1242.06 2501.96 1248.18 2492.17 1254 2482.25 1259.77 2472.25 1290.41 2420.23 1290.41 2420.23 1312.97 2414.34 1320.04 2413.67 1327.13 2413.18 1334.23 2412.84 1340.68 2411.58 1347.12 2410.31 1353.54 2408.92 1564.97 2364.25 1790.04 2421.32 1953.37 2563.17Z" fill="#16213C" fill-rule="evenodd"/><path d="M2032.92 2085.17C2047.96 2086.73 2049.73 2088.78 2059.13 2100.19 2064.67 2109.33 2069.44 2118.79 2074.22 2128.34 2076.36 2132.55 2076.36 2132.55 2078.54 2136.83 2083.2 2145.99 2087.82 2155.17 2092.44 2164.35 2097.28 2173.89 2102.12 2183.43 2106.97 2192.97 2110.25 2199.44 2113.53 2205.91 2116.81 2212.38 2127.4 2233.28 2138.12 2254.1 2148.97 2274.87 2150.33 2277.49 2151.7 2280.1 2153.1 2282.79 2160.87 2297.69 2160.87 2297.69 2168.67 2312.57 2172.2 2319.28 2175.7 2326.01 2179.2 2332.74 2181.18 2336.5 2183.15 2340.26 2185.18 2344.14 2189.46 2353.53 2192.39 2361.14 2193.23 2371.42 2184.3 2380.33 2178.23 2379.09 2166.07 2379.14 2163.24 2379.11 2160.4 2379.09 2157.48 2379.06 2153 2379.07 2153 2379.07 2148.43 2379.07 2138.53 2379.06 2128.64 2379.01 2118.74 2378.96 2111.89 2378.94 2105.04 2378.93 2098.19 2378.93 2080.13 2378.9 2062.08 2378.83 2044.02 2378.76 2025.61 2378.69 2007.2 2378.65 1988.78 2378.62 1952.63 2378.55 1916.49 2378.43 1880.34 2378.28 1876.86 2363.55 1877.27 2357.52 1884.63 2344.1 1886.36 2340.88 1888.09 2337.65 1889.87 2334.33 1892.7 2329.22 1892.7 2329.22 1895.6 2324 1899.47 2316.8 1903.35 2309.6 1907.22 2302.41 1909.11 2298.91 1911.01 2295.41 1912.97 2291.81 1919.37 2279.9 1925.5 2267.88 1931.49 2255.76 1933.02 2252.69 1933.02 2252.69 1934.58 2249.55 1936.87 2244.94 1939.16 2240.34 1941.44 2235.73 1949.93 2218.64 1958.44 2201.57 1966.96 2184.51 1970.07 2178.27 1973.17 2172.04 1976.28 2165.8 2015.57 2087.1 2015.57 2087.1 2032.92 2085.17Z" fill="#3B5FEF" fill-rule="evenodd"/><path d="M1588.66 2148.18C1596.13 2174.54 1574.22 2200.72 1561.82 2223.56 1548.31 2248.47 1535.69 2273.81 1523.08 2299.18 1520.81 2299.18 1518.53 2299.18 1516.18 2299.18 1521.02 2283.49 1527.43 2269.13 1534.95 2254.57 1537.39 2249.78 1539.83 2244.99 1542.27 2240.2 1543.6 2237.59 1544.93 2234.99 1546.3 2232.31 1554.74 2215.74 1563.06 2199.12 1571.41 2182.5 1574.71 2175.92 1578.02 2169.34 1581.33 2162.77 1582.74 2159.95 1584.16 2157.14 1585.62 2154.24 1586.62 2152.24 1587.63 2150.24 1588.66 2148.18Z" fill="#4368F1" fill-rule="evenodd"/><path d="M2465.27 2127.18C2475.56 2130.62 2475.56 2130.62 2480.24 2137.85 2481.79 2140.96 2483.34 2144.07 2484.93 2147.27 2486.62 2150.64 2488.3 2154.01 2490.03 2157.49 2491.76 2161.04 2493.49 2164.59 2495.27 2168.24 2497.05 2171.78 2498.83 2175.32 2500.67 2178.96 2510.33 2198.54 2510.33 2198.54 2513.27 2206.3 2512.14 2208.57 2511.01 2210.84 2509.84 2213.18 2501.15 2205.32 2496.25 2197.52 2491.05 2187.04 2489.54 2184 2488.02 2180.96 2486.46 2177.83 2484.92 2174.67 2483.37 2171.5 2481.77 2168.24 2479.39 2163.48 2479.39 2163.48 2476.96 2158.62 2465.27 2134.98 2465.27 2134.98 2465.27 2127.18Z" fill="#547AF1" fill-rule="evenodd"/><path d="M1973.22 1467.11C1969.16 1479.48 1966.35 1480.62 1955.73 1487.26 1941.02 1496.81 1928.23 1507.3 1915.22 1519.11 1915.22 1508.71 1915.22 1508.71 1920.35 1502.12 1955.2 1467.11 1955.2 1467.11 1973.22 1467.11Z" fill="#4293F0" fill-rule="evenodd"/><path d="M2540.4 2337.1C2545.87 2337.12 2545.87 2337.12 2551.45 2337.14 2560.4 2337.18 2569.34 2337.23 2578.28 2337.3 2578.28 2339.42 2578.28 2341.55 2578.28 2343.74 2576.07 2343.82 2573.87 2343.9 2571.59 2343.99 2561.41 2344.37 2551.22 2344.76 2541.04 2345.15 2535.84 2345.34 2535.84 2345.34 2530.53 2345.54 2508.67 2346.39 2487.01 2347.88 2465.28 2350.19 2483.35 2331.35 2515.41 2336.91 2540.4 2337.1Z" fill="#5B73EF" fill-rule="evenodd"/><path d="M2001.22 1453.81C2012.44 1453.63 2023.66 1453.51 2034.89 1453.42 2038.08 1453.36 2041.28 1453.31 2044.57 1453.26 2047.62 1453.24 2050.68 1453.22 2053.82 1453.2 2056.64 1453.16 2059.46 1453.13 2062.37 1453.1 2069.4 1453.81 2069.4 1453.81 2076.22 1460.04 2049.73 1463.12 2027.1 1463.25 2001.22 1456.92 2001.22 1455.89 2001.22 1454.86 2001.22 1453.81Z" fill="#5EA6F1" fill-rule="evenodd"/><path d="M2076.23 1460.11C2099.17 1461.09 2113.05 1470.73 2131.23 1484.27 2116.88 1489.07 2110.14 1483.66 2096.86 1477.37 2096.86 1475.09 2096.86 1472.81 2096.86 1470.46 2086.65 1468.76 2086.65 1468.76 2076.23 1467.01 2076.23 1464.73 2076.23 1462.46 2076.23 1460.11Z" fill="#4798EF" fill-rule="evenodd"/><path d="M1540.64 2251.19C1544.14 2261.48 1544.14 2261.48 1539.89 2270.73 1537.91 2274.11 1535.92 2277.49 1533.87 2280.98 1531.89 2284.38 1529.92 2287.79 1527.88 2291.3 1525.55 2295.21 1525.55 2295.21 1523.17 2299.19 1520.86 2299.19 1518.55 2299.19 1516.18 2299.19 1521.28 2280.98 1530.1 2266.75 1540.64 2251.19Z" fill="#3D5FF1" fill-rule="evenodd"/><path d="M2489.28 2405.86C2479.23 2412.53 2475.79 2413.8 2464.4 2414.92 2460.04 2415.34 2455.69 2415.77 2451.2 2416.21 2451.2 2413.93 2451.2 2411.66 2451.2 2409.31 2448.91 2408.17 2446.63 2407.03 2444.28 2405.86 2460.24 2401.39 2473.14 2403.41 2489.28 2405.86Z" fill="#212B45" fill-rule="evenodd"/><path d="M2028.23 1456.43C2028.23 1457.56 2028.23 1458.68 2028.23 1459.85 2020.36 1461.75 2012.48 1463.59 2004.59 1465.4 2000.21 1466.44 1995.82 1467.47 1991.3 1468.53 1987.6 1469.05 1983.91 1469.57 1980.1 1470.11 1977.83 1467.85 1975.56 1465.59 1973.23 1463.27 1991.77 1455.5 2008.5 1455.73 2028.23 1456.43Z" fill="#3C92EF" fill-rule="evenodd"/><path d="M1330.15 2416.21C1330.15 2418.45 1330.15 2420.69 1330.15 2423.01 1316.52 2427.85 1303.48 2431.17 1289.15 2433.21 1290.28 2429.84 1291.41 2426.48 1292.57 2423.01 1305.82 2418.28 1316.02 2416.21 1330.15 2416.21Z" fill="#2F3A53" fill-rule="evenodd"/><path d="M2375.88 2357.21C2379.31 2358.39 2382.73 2359.57 2386.26 2360.79 2379.16 2368.83 2375.86 2371.53 2365.49 2375.1 2357.42 2375.24 2349.34 2375.26 2341.26 2375.1 2353.19 2366.88 2361.82 2366.01 2375.88 2364.37 2375.88 2362.01 2375.88 2359.64 2375.88 2357.21Z" fill="#415BF0" fill-rule="evenodd"/><path d="M1846.39 1635.13C1847.52 1635.13 1848.65 1635.13 1849.82 1635.13 1851.94 1652.9 1845.07 1662.53 1836.08 1677.13 1833.81 1677.13 1831.54 1677.13 1829.21 1677.13 1833.71 1662.31 1839.32 1648.87 1846.39 1635.13Z" fill="#4D97F3" fill-rule="evenodd"/><path d="M2138.24 1501.11C2146.43 1501.72 2150.99 1503.52 2156.77 1509.39 2161.04 1514.57 2165.15 1519.89 2169.24 1525.22 2168.1 1527.5 2166.96 1529.77 2165.79 1532.11 2163.52 1530.98 2161.25 1529.84 2158.9 1528.67 2158.9 1525.26 2158.9 1521.85 2158.9 1518.34 2154.36 1516.06 2149.81 1513.79 2145.13 1511.45 2145.13 1509.17 2145.13 1506.9 2145.13 1504.56 2142.85 1503.42 2140.58 1502.28 2138.24 1501.11Z" fill="#4797EF" fill-rule="evenodd"/><path d="M2214.24 2144.18C2224.86 2152.88 2227.66 2157.05 2230.39 2170.95 2230.67 2174.66 2230.95 2178.36 2231.24 2182.18 2214.24 2160.2 2214.24 2160.2 2214.24 2144.18Z" fill="#3F69ED" fill-rule="evenodd"/><path d="M1887.72 2340.21C1892.86 2353.56 1889.24 2362.22 1884.22 2375.21 1881.91 2375.21 1879.6 2375.21 1877.21 2375.21 1878.99 2362.19 1881.12 2351.63 1887.72 2340.21Z" fill="#4965F0" fill-rule="evenodd"/><path d="M1588.59 2148.18C1591.06 2153.7 1591.06 2153.7 1592.19 2161.78 1587.01 2172.83 1587.01 2172.83 1581.39 2182.18 1579.01 2182.18 1576.64 2182.18 1574.19 2182.18 1578.18 2170.32 1582.34 2159.14 1588.59 2148.18Z" fill="#4871F3" fill-rule="evenodd"/><path d="M1705.19 2371.37C1731.54 2370.96 1731.54 2370.96 1739.19 2374.65 1739.19 2376.81 1739.19 2378.97 1739.19 2381.2 1727.97 2379.03 1716.75 2376.87 1705.19 2374.65 1705.19 2373.57 1705.19 2372.49 1705.19 2371.37Z" fill="#586FED" fill-rule="evenodd"/><path d="M1646.99 2031.17C1649.37 2034.51 1651.75 2037.85 1654.19 2041.29 1649.24 2049.73 1649.24 2049.73 1643.39 2058.17 1641.02 2058.17 1638.64 2058.17 1636.19 2058.17 1642.94 2038.76 1642.94 2038.76 1646.99 2031.17Z" fill="#5482F3" fill-rule="evenodd"/></g></svg>